<?xml version="1.1" encoding="UTF-8" standalone="no"?>
<svg xmlns="http://www.w3.org/2000/svg" height="300" width="640" version="1.1">
    <path d="M 0 0 h 20 v 60 l 60 80 l 60 -80 v -60 h 20 v 60 l -67.5 90 l 67.5 90 v 60 h -20 v -60 l -60 -80 l -60 80 v 60 h -20 v -60 l 67.5 -90 l -67.5 -90 v -60 Z
             M 180 0 h 20 v 60 l 60 80 l 60 -80 v -60 h 20 v 60 l -70 93.3333 v 150 h -20 v -150 l -70 -93.3333 z
             M 360 0 h 20 v 60 h 140 l -120 160 h 120 v 80 h -20 v -60 h -140 l 120 -160 h -120 z
             M 580 0 h 20 v 105 h 40 v 20 h -40 v 120 l 40 53.3333 h -20 l -40 -53.3333 v -120 h -40 v -20 h 40" fill="#000"/>
</svg>